<svg xmlns="http://www.w3.org/2000/svg" xmlns:xlink="http://www.w3.org/1999/xlink" version="1.1" id="Layer_1" x="0px" y="0px" width="168.399px" height="160px" viewBox="0 0 168.399 160" enable-background="new 0 0 168.399 160" xml:space="preserve">
<g>
	<path fill="#333333" d="M168.399 160c0 0 0-3.721 0-35.883c0-32.163-26.006-34.55-43.973-39.314l-0.577-0.003 c0.189 0.1 5.406-2.276 5.406-8.821c0-6.07-10.244-27.887-15.177-43.538c0-25.326-12.9-31.587-26.465-31.587 C87.52 0.9 88.4 0 84.2 0s-3.32 0.854-3.415 0.854c-13.564 0-26.464 6.261-26.464 31.6 c-4.933 15.651-15.177 37.468-15.177 43.538c0 6.5 5.2 8.9 5.4 8.821l-0.578 0.003C26.006 89.6 0 92 0 124.1 C0 156.3 0 160 0 160H168.399z"/>
	<path fill="#555555" d="M84.2 27.508c-4.269 0-3.333-0.711-3.415-0.759c-7.968-4.647-19.825 0.095-24.093 9 c-4.417 9.227-6.924 17.169-9.959 25.896c-4.269 6.166-7.588 10.624-7.588 14.323c0-6.07 10.244-27.887 15.177-43.538 c0-25.326 12.9-31.587 26.464-31.587C80.879 0.9 80 0 84.2 0s3.32 0.9 3.4 0.854c13.564 0 26.5 6.3 26.5 31.6 c4.933 15.7 15.2 37.5 15.2 43.538c0-3.699-3.32-8.157-7.588-14.323c-3.035-8.727-5.543-16.669-9.96-25.896 c-4.269-8.916-16.126-13.658-24.094-9.011C87.533 26.8 88.5 27.5 84.2 27.508z"/>
	<path fill="#555555" d="M87.488 30.701c3.699-4.806 17.591-3.258 17.6 8.234c0 1.313-2.14 6.044-10.051 3.1 C86.855 39.1 85.8 34.5 87.5 30.701z"/>
	<path fill="#333333" d="M84.2 63.326c-15.114 0-15.651 0.732-15.651-0.948c0-0.948 0-0.948 11.762-17.228 c0-3.415 1.423-5.85 3.889-5.85c2.466 0 3.9 2.4 3.9 5.85C99.85 61.4 99.8 61.4 99.8 62.4 C99.85 64.1 99.3 63.3 84.2 63.326z"/>
	<path fill="#555555" d="M80.911 30.701c-3.699-4.806-17.591-3.258-17.591 8.234c0 1.3 2.1 6 10.1 3.1 C81.543 39.1 82.6 34.5 80.9 30.701z"/>
	<g>
		<path fill="#555555" d="M80.596 47.67c0.103-0.142 0.208-0.288 0.313-0.433l0 0C80.802 47.4 80.7 47.5 80.6 47.67z"/>
		<path fill="#555555" d="M80.596 47.67c-0.336 0.465-0.663 0.917-0.98 1.356C79.933 48.6 80.3 48.1 80.6 47.67z"/>
		<path fill="#555555" d="M98.871 60.391c-0.604 0-1.127 0.338-1.394 0.834c-0.776-1.175-2.26-3.268-4.74-6.717v5.44h-1.834v-7.985 c-0.582-0.808-1.206-1.671-1.874-2.596v10.581h-1.833V47.237h0.295c0.1 0.1 0.2 0.3 0.3 0.4 c-0.352-0.485-0.711-0.983-1.084-1.499l-0.323-0.448V45.15c0-1.911-0.571-4.143-2.182-4.143s-2.182 2.231-2.182 4.143v0.552 l-0.323 0.448c-0.269 0.371-0.529 0.731-0.786 1.087h0.295v12.711H79.37V49.367c-0.668 0.925-1.292 1.788-1.874 2.596v7.985 h-1.833v-5.44c-2.481 3.449-3.964 5.542-4.74 6.718c-0.267-0.497-0.791-0.835-1.394-0.835c-0.873 0-1.581 0.708-1.581 1.6 s0.708 1.6 1.6 1.581s1.581-0.708 1.581-1.581c0-0.065-0.005-0.13-0.013-0.194c0.018 0 0 0 0.1 0 c0.74 0 1.72-0.02 2.961-0.045c2.334-0.048 5.532-0.113 10.088-0.113c4.556 0 7.8 0.1 10.1 0.1 c1.241 0 2.2 0 3 0.045c0.019 0 0 0 0.1 0c-0.008 0.064-0.013 0.129-0.013 0.2 c0 0.9 0.7 1.6 1.6 1.581s1.581-0.708 1.581-1.581S99.744 60.4 98.9 60.391z M85.117 59.948h-1.834V47.237h1.834 V59.948z"/>
	</g>
	<g display="none">
		<path display="inline" fill="#333333" d="M84.2 32.583c1.843 0 2.5 0.3 2.5 0.265c0.04 0 0.1 0 0.1 0 c0.04-0.312 0.103-0.621 0.183-0.928c-0.222-0.078-1.046-0.315-2.854-0.315s-2.632 0.237-2.854 0.3 c0.08 0.3 0.1 0.6 0.2 0.927c0.039-0.005 0.078-0.012 0.116-0.026C81.651 32.8 82.4 32.6 84.2 32.583z"/>
		<path display="inline" fill="#333333" d="M86.819 33.591c-0.387-0.101-1.196-0.249-2.619-0.249c-1.423 0-2.233 0.148-2.619 0.2 c0.006 0.331-0.014 0.662-0.061 0.995c0.047-0.004 0.095-0.012 0.141-0.029c0.007-0.003 0.708-0.267 2.539-0.267 s2.531 0.3 2.5 0.264c0.048 0 0.1 0 0.1 0.033C86.833 34.3 86.8 33.9 86.8 33.591z"/>
		<path display="inline" fill="#333333" d="M80.911 30.701c0.064 0.1 0.1 0.3 0.2 0.442c0.157-0.045 1.056-0.269 3.11-0.269 c2.065 0 3 0.2 3.1 0.268c0.056-0.147 0.114-0.295 0.178-0.441c0.096-0.124 0.2-0.243 0.309-0.359 c-0.044-0.038-0.096-0.069-0.155-0.089c-0.038-0.014-0.979-0.326-3.441-0.326s-3.403 0.313-3.442 0.3 c-0.059 0.02-0.11 0.051-0.155 0.089C80.711 30.5 80.8 30.6 80.9 30.701z"/>
	</g>
	<path fill="#555555" d="M88.915 41.26c0.396 1 0.6 2.1 0.7 3.386c5.697 7.9 8.6 11.9 10 14 c0.278 0.4 0.5 0.8 0.7 1.066c0 0 1.371-8.817 3.711-14.699C97.829 44.1 88.9 41.3 88.9 41.26z"/>
	<path fill="#555555" d="M79.485 41.26c-0.396 0.97-0.633 2.111-0.683 3.386c-5.697 7.885-8.579 11.876-10.037 14 c-0.278 0.407-0.513 0.758-0.711 1.066c0 0-1.372-8.817-3.711-14.699C70.571 44.1 79.5 41.3 79.5 41.26z"/>
	<path fill="#555555" d="M73.371 42.076c-7.911 2.903-10.051-1.828-10.051-3.141c0-11.492 13.892-13.04 17.591-8.234 C82.572 34.5 81.5 39.1 73.4 42.076z M95.028 42.076c7.911 2.9 10.051-1.828 10.051-3.141 c0-11.492-13.892-13.04-17.591-8.234C85.827 34.5 86.9 39.1 95 42.076z"/>
</g>
<g>
	<g>
		<path fill="#FFFFFF" d="M81 104.752V92.215h3.451v12.537H81z"/>
		<path fill="#FFFFFF" d="M90.412 104.752h-3.203V92.215h3.571c1.398 0 2.4 0.1 2.9 0.2 c0.565 0.1 1 0.4 1.4 0.702c0.462 0.4 0.8 0.9 1.1 1.434c0.242 0.6 0.4 1.2 0.4 1.9 c0 0.748-0.12 1.406-0.36 1.975c-0.239 0.567-0.593 1.034-1.062 1.399c-0.354 0.274-0.771 0.471-1.25 0.6 s-1.247 0.18-2.304 0.18h-0.582h-0.616V104.752z M90.412 97.858h0.65c0.822 0 1.396-0.113 1.722-0.339 c0.325-0.226 0.487-0.609 0.487-1.151c0-0.524-0.16-0.899-0.479-1.121c-0.319-0.223-0.885-0.334-1.695-0.334h-0.685V97.858z"/>
		<path fill="#FFFFFF" d="M100.13 104.752v-9.574h-2.809v-2.963h9.033v2.963h-2.808v9.574H100.13z"/>
		<path fill="#FFFFFF" d="M120.587 98.51c0 0.901-0.165 1.746-0.497 2.534c-0.331 0.788-0.813 1.493-1.446 2.1 c-0.64 0.616-1.37 1.091-2.192 1.425s-1.676 0.502-2.561 0.502c-0.896 0-1.754-0.168-2.573-0.502s-1.54-0.809-2.162-1.425 c-0.646-0.622-1.135-1.33-1.469-2.124c-0.334-0.793-0.5-1.636-0.5-2.525c0-0.896 0.166-1.74 0.5-2.531s0.823-1.497 1.469-2.119 c0.622-0.616 1.343-1.092 2.162-1.426s1.677-0.501 2.573-0.501c0.891 0 1.7 0.2 2.6 0.501s1.552 0.8 2.2 1.4 c0.628 0.6 1.1 1.3 1.4 2.115C120.42 96.8 120.6 97.6 120.6 98.51z M113.891 102.2 c0.947 0 1.731-0.348 2.351-1.044s0.93-1.575 0.93-2.637c0-1.051-0.314-1.928-0.942-2.63s-1.407-1.053-2.338-1.053 c-0.947 0-1.731 0.35-2.351 1.049s-0.929 1.577-0.929 2.634c0 1.1 0.3 2 0.9 2.646S112.926 102.2 113.9 102.19z"/>
		<path fill="#FFFFFF" d="M126.008 104.752l-5.258-12.537h3.63l2.51 7.014c0.022 0.1 0.1 0.3 0.1 0.5 c0.07 0.3 0.2 0.7 0.3 1.143c0.092-0.382 0.177-0.728 0.257-1.035c0.08-0.309 0.141-0.522 0.181-0.643l2.491-7.014h3.631 l-5.258 12.537H126.008z"/>
	</g>
	<polygon fill="#E14D43" points="46.9,76.5 51.8,76.5 57,82.2 62.2,76.5 67,76.5 61.3,87.5 52.7,87.5"/>
	<g>
		<path fill="#E14D43" d="M81 138.33v-29.734h8.185v29.734H81z"/>
		<path fill="#E14D43" d="M101.575 108.596h8.084v19.295c0 2.099-0.136 3.71-0.406 4.834s-0.718 2.119-1.341 3 c-0.826 1.124-1.842 1.974-3.046 2.549c-1.206 0.575-2.56 0.863-4.063 0.863c-1.869 0-3.534-0.399-4.996-1.198 c-1.463-0.799-2.715-1.983-3.758-3.554l4.956-4.489c0.121 0.9 0.4 1.6 0.9 2.031c0.447 0.5 1 0.7 1.7 0.7 c0.771 0 1.303-0.427 1.594-1.28c0.291-0.853 0.437-2.985 0.437-6.397V108.596z"/>
		<path fill="#E14D43" d="M115.65 138.33v-29.734h35.972v6.52H123.55v5.159h9.729v6.377h-9.729v5.017h10.318v6.662H115.65z"/>
	</g>
	<polygon fill="#FFFFFF" points="76,138.3 35.4,138.3 65,92.4 78.6,92.4 55.5,128.3 76,128.3"/>
	<polygon fill="#E14D43" points="55,102.3 61.4,92.4 21.8,92.4 21.8,102.3"/>
</g>
<g>
	<path fill="#FFFFFF" d="M16.701 153.389h-2.044l-0.471-3.469c-0.033-0.245-0.063-0.518-0.09-0.816 c-0.028-0.3-0.052-0.627-0.074-0.981c-0.051 0.34-0.152 0.764-0.301 1.271c-0.033 0.106-0.057 0.185-0.071 0.235l-1.091 3.8 h-1.458l-1.091-3.76c-0.015-0.051-0.037-0.129-0.065-0.235c-0.154-0.508-0.254-0.93-0.302-1.266 c-0.022 0.303-0.047 0.604-0.077 0.901s-0.064 0.595-0.104 0.891l-0.471 3.469H6.958l1.238-8.023h2.165l1.211 4.1 c0.007 0 0 0.1 0 0.143c0.113 0.4 0.2 0.7 0.2 0.948c0.014-0.143 0.042-0.301 0.082-0.474 c0.04-0.174 0.095-0.383 0.165-0.628l1.222-4.127h2.17L16.701 153.389z"/>
	<path fill="#FFFFFF" d="M16.937 153.389l2.768-8.023h2.74l2.773 8.023h-2.175l-0.406-1.436h-3.107l-0.417 1.436H16.937z M20 150.391h2.176l-0.816-2.646c-0.026-0.08-0.061-0.21-0.104-0.39c-0.044-0.179-0.101-0.409-0.17-0.69 c-0.048 0.197-0.094 0.386-0.14 0.564c-0.046 0.18-0.093 0.351-0.14 0.516L20 150.391z"/>
	<path fill="#FFFFFF" d="M27.01 153.389v-3.661l-2.806-4.362h2.51l1.08 2.066c0.007 0 0 0 0 0.1 c0.113 0.2 0.2 0.4 0.2 0.619c0.037-0.179 0.115-0.378 0.236-0.598c0.022-0.04 0.036-0.067 0.043-0.082l1.069-2.066h2.516 l-2.806 4.362v3.661H27.01z"/>
	<path fill="#FFFFFF" d="M36.957 153.389v-6.127h-1.797v-1.896h5.782v1.896h-1.798v6.127H36.957z"/>
	<path fill="#FFFFFF" d="M42.009 153.389v-8.023h2.187v3.118h2.916v-3.118h2.192v8.023h-2.192v-3.267h-2.916v3.267H42.009z"/>
	<path fill="#FFFFFF" d="M51.008 153.389v-8.023h4.916v1.76H53.14v1.392h2.625v1.721H53.14v1.354h2.784v1.798H51.008z"/>
	<path fill="#FFFFFF" d="M63.98 153.389v-1.798h-3.65v-1.578l2.987-4.604h2.494v4.604h0.888v1.578h-0.888v1.798H63.98z M63.98 150.013v-2.335c0-0.215 0.005-0.395 0.014-0.539c0.009-0.145 0.023-0.268 0.042-0.37c-0.07 0.157-0.147 0.314-0.233 0.5 c-0.086 0.156-0.191 0.332-0.315 0.525l-1.474 2.247H63.98z"/>
	<path fill="#FFFFFF" d="M69.055 153.389v-6.127h-1.797v-1.896h5.782v1.896h-1.798v6.127H69.055z"/>
	<path fill="#FFFFFF" d="M74.107 153.389v-8.023h2.187v3.118h2.916v-3.118h2.192v8.023h-2.192v-3.267h-2.916v3.267H74.107z"/>
	<path fill="#FFFFFF" d="M86.619 153.389v-8.023h2.198c0.906 0 1.5 0 1.9 0.088c0.36 0.1 0.7 0.2 0.9 0.3 c0.296 0.2 0.5 0.4 0.7 0.66c0.155 0.3 0.2 0.6 0.2 0.956c0 0.457-0.116 0.819-0.348 1.1 c-0.232 0.269-0.603 0.473-1.11 0.611c0.57 0 1 0.2 1.3 0.6c0.321 0.4 0.5 0.8 0.5 1.4 c0 0.428-0.09 0.804-0.271 1.129c-0.182 0.325-0.439 0.577-0.775 0.757c-0.274 0.146-0.612 0.25-1.015 0.3 c-0.401 0.062-1.06 0.093-1.973 0.093H86.619z M88.647 148.571h0.438c0.54 0 0.911-0.06 1.112-0.178 c0.201-0.119 0.302-0.324 0.302-0.617c0-0.303-0.095-0.516-0.282-0.638c-0.188-0.123-0.555-0.184-1.1-0.184h-0.471V148.571z M88.647 151.75h0.767c0.52 0 0.887-0.064 1.102-0.194c0.216-0.13 0.324-0.347 0.324-0.649c0-0.336-0.099-0.571-0.296-0.704 c-0.197-0.134-0.563-0.2-1.097-0.2h-0.8V151.75z"/>
	<path fill="#FFFFFF" d="M94.231 153.389v-8.023h4.916v1.76h-2.784v1.392h2.626v1.721h-2.626v1.354h2.784v1.798H94.231z"/>
	<path fill="#FFFFFF" d="M109.57 145.365l1.009 3.814c0.048 0.2 0.1 0.4 0.1 0.537s0.082 0.4 0.1 0.6 c0.055-0.285 0.102-0.521 0.14-0.704c0.038-0.185 0.075-0.343 0.112-0.475l0.942-3.814h2.209l-2.27 8.023h-2.027l-0.992-3.425 c-0.036-0.121-0.097-0.356-0.181-0.707c-0.036-0.157-0.065-0.28-0.088-0.367c-0.018 0.076-0.044 0.185-0.076 0.3 c-0.084 0.354-0.148 0.604-0.192 0.751l-0.976 3.425h-2.033l-2.263-8.023h2.208l0.921 3.837c0.044 0.2 0.1 0.4 0.1 0.6 s0.081 0.4 0.1 0.608c0.032-0.154 0.068-0.314 0.106-0.482s0.096-0.407 0.173-0.718l1.008-3.837H109.57z"/>
	<path fill="#FFFFFF" d="M115.051 153.389v-8.023h2.208v8.023H115.051z"/>
	<path fill="#FFFFFF" d="M120.181 153.389v-6.127h-1.798v-1.896h5.781v1.896h-1.797v6.127H120.181z"/>
	<path fill="#FFFFFF" d="M125.233 153.389v-8.023h2.188v3.118h2.915v-3.118h2.192v8.023h-2.192v-3.267h-2.915v3.267H125.233z"/>
	<path fill="#FFFFFF" d="M139.17 153.389v-3.661l-2.807-4.362h2.51l1.08 2.066c0.007 0 0 0 0 0.1 c0.113 0.2 0.2 0.4 0.2 0.619c0.036-0.179 0.115-0.378 0.235-0.598c0.022-0.04 0.037-0.067 0.044-0.082l1.069-2.066h2.515 l-2.806 4.362v3.661H139.17z"/>
	<path fill="#FFFFFF" d="M152.487 149.394c0 0.577-0.106 1.118-0.317 1.622c-0.212 0.504-0.521 0.955-0.927 1.4 c-0.409 0.395-0.877 0.699-1.402 0.913c-0.526 0.213-1.073 0.32-1.639 0.32c-0.574 0-1.123-0.107-1.647-0.32 c-0.524-0.214-0.985-0.519-1.384-0.913c-0.413-0.398-0.726-0.851-0.939-1.359c-0.214-0.508-0.32-1.046-0.32-1.616 c0-0.573 0.106-1.113 0.32-1.619s0.526-0.958 0.939-1.356c0.398-0.395 0.859-0.699 1.384-0.913c0.524-0.213 1.073-0.32 1.647-0.32 c0.569 0 1.1 0.1 1.6 0.32c0.528 0.2 1 0.5 1.4 0.913c0.402 0.4 0.7 0.8 0.9 1.4 S152.487 148.8 152.5 149.394z M148.202 151.75c0.606 0 1.107-0.223 1.504-0.669c0.396-0.445 0.595-1.008 0.595-1.688 c0-0.672-0.201-1.233-0.603-1.683c-0.402-0.449-0.901-0.674-1.496-0.674c-0.606 0-1.108 0.224-1.505 0.7 c-0.396 0.448-0.595 1.01-0.595 1.686c0 0.7 0.2 1.3 0.6 1.693C147.08 151.5 147.6 151.8 148.2 151.75z"/>
	<path fill="#FFFFFF" d="M153.808 145.365h2.181v3.902c0 0.6 0 1 0 1.235c0.029 0.3 0.1 0.5 0.1 0.6 c0.084 0.2 0.2 0.4 0.4 0.469c0.208 0.1 0.5 0.2 0.8 0.161s0.553-0.054 0.759-0.161 c0.206-0.108 0.354-0.265 0.441-0.469c0.069-0.168 0.118-0.377 0.147-0.628c0.029-0.25 0.044-0.662 0.044-1.235v-0.548v-3.354 h2.176v4.242c0 0.88-0.053 1.529-0.159 1.948c-0.105 0.418-0.284 0.775-0.537 1.071c-0.273 0.325-0.65 0.569-1.129 0.7 c-0.479 0.163-1.06 0.244-1.742 0.244c-0.688 0-1.269-0.081-1.746-0.244c-0.477-0.162-0.854-0.406-1.131-0.731 c-0.249-0.296-0.427-0.653-0.535-1.071c-0.107-0.419-0.161-1.068-0.161-1.948v-0.833V145.365z"/>
</g>
</svg>
