<svg xmlns="http://www.w3.org/2000/svg" xmlns:xlink="http://www.w3.org/1999/xlink" version="1.1" id="Layer_1" x="0px" y="0px" width="48px" height="30px" viewBox="0 0 48 30" enable-background="new 0 0 48 30" xml:space="preserve" class="pije">
<path fill="url(#beer)" d="M20.474 29.621V15.375h3.99v14.246H20.474z M30.504 15.375h3.941v9.244 c0 1.006-0.065 1.777-0.197 2.316c-0.132 0.537-0.35 1.015-0.654 1.43c-0.402 0.539-0.896 0.945-1.484 1.2 C31.521 29.9 30.9 30 30.1 30c-0.91 0-1.725-0.191-2.437-0.574c-0.714-0.382-1.323-0.949-1.833-1.701l2.417-2.149 c0.06 0.4 0.2 0.7 0.4 0.973c0.219 0.2 0.5 0.3 0.8 0.343c0.377 0 0.635-0.205 0.777-0.613 c0.142-0.409 0.211-1.432 0.211-3.065v-7.835h0.068V15.375z M37.367 29.621V15.375h8.883v3.123h-5.029v2.473h4.741v3.055h-4.741 v2.404h5.029v3.191H37.367z M17.902 11.668c-0.435-1.011-1.066-1.853-1.895-2.526c-0.706-0.583-1.565-0.995-2.578-1.236 c-0.912-0.217-2.427-0.336-4.547-0.358v4.748c1.365 0 2.3 0.2 2.9 0.587c0.574 0.4 0.9 1.1 0.9 2c0 0.955-0.292 1.631-0.875 2 c-0.553 0.376-1.506 0.573-2.858 0.594v4.856h0.756c1.892 0 3.269-0.104 4.128-0.315c0.858-0.211 1.605-0.558 2.24-1.041 c0.839-0.644 1.473-1.465 1.903-2.465c0.429-1 0.644-2.158 0.644-3.477c-0.066-1.263-0.27-2.363-0.67-3.395h-0.048V11.668z"/>
<path fill="#FFFFFF" d="M20.474 13.533V7.527h1.683v6.006H20.474z M25.063 13.533H23.5V7.527h1.741c0.682 0 1.2 0 1.4 0.1 c0.275 0.1 0.5 0.2 0.7 0.336c0.226 0.2 0.4 0.4 0.5 0.7c0.118 0.3 0.2 0.6 0.2 0.917c0 0.358-0.059 0.673-0.176 0.9 c-0.116 0.272-0.289 0.496-0.518 0.7c-0.174 0.131-0.377 0.226-0.609 0.283c-0.233 0.057-0.608 0.086-1.123 0.086h-0.284h-0.3v1.94 h0.031V13.533z M25.063 10.23h0.316c0.4 0 0.682-0.054 0.839-0.162c0.159-0.107 0.239-0.292 0.239-0.552 c0-0.251-0.079-0.431-0.234-0.537c-0.154-0.106-0.432-0.16-0.826-0.16h-0.334V10.23z M29.801 13.533V8.946h-1.369V7.527h4.404v1.419 h-1.369v4.587H29.801z M39.773 10.5c0 0.433-0.08 0.837-0.241 1.215c-0.161 0.377-0.396 0.715-0.706 1 c-0.311 0.295-0.668 0.522-1.068 0.7c-0.4 0.178-0.816 0.24-1.248 0.24c-0.438 0-0.855-0.08-1.255-0.24 c-0.399-0.16-0.751-0.388-1.054-0.683c-0.314-0.299-0.555-0.638-0.717-1.018c-0.164-0.381-0.244-0.784-0.244-1.211 c0-0.429 0.08-0.833 0.244-1.212c0.162-0.379 0.4-0.717 0.717-1.016c0.303-0.295 0.654-0.522 1.054-0.683s0.817-0.24 1.255-0.24 c0.436 0 0.9 0.1 1.3 0.2c0.398 0.1 0.8 0.4 1.1 0.7c0.307 0.3 0.5 0.6 0.7 1.014c0.201 0.4 0.2 0.8 0.1 1.2 L39.773 10.5z M36.51 12.3c0.463 0 0.844-0.167 1.146-0.501c0.303-0.333 0.453-0.755 0.453-1.264c0-0.503-0.152-0.923-0.459-1.259 c-0.308-0.337-0.688-0.505-1.142-0.505c-0.462 0-0.845 0.168-1.146 0.503c-0.303 0.335-0.452 0.755-0.452 1.3 c0 0.5 0.1 0.9 0.4 1.3c0.344 0.3 0.7 0.5 1.2 0.465H36.51V12.3z M42.417 13.533l-2.563-6.006h1.771l1.225 3.4 c0.01 0 0 0.1 0.1 0.3c0.032 0.1 0.1 0.3 0.1 0.548c0.044-0.184 0.086-0.349 0.125-0.497c0.039-0.147 0.068-0.25 0.089-0.308 l1.215-3.359h1.772l-2.563 6.006h-1.27L42.417 13.533L42.417 13.533z M7.49 29.621H1.75V7.541h5.74V29.621z M8.882 24.463h9.672 v5.158H8.882V24.463z"/>
<defs>
	<linearGradient id="beer" gradientUnits="userSpaceOnUse" x1="27.5664" y1="7.5479" x2="27.5664" y2="30.0005">
		<stop offset="0" stop-color="#FFFFFF" stop-opacity=".5">
			<animate attributeName="offset" values="0;.2;.4;.6;.8;1;1;1;1;1;1;0;0;0;0;0;0;0;0;0" dur="20s" repeatCount="indefinite" />
		</stop>
		<stop offset="0" stop-color="#FFFFFF">
			<animate attributeName="offset" values="0;.2;.4;.6;.8;1;1;1;1;1;1;0;0;0;0;0;0;0;0;0" dur="20s" repeatCount="indefinite" />
		</stop>
		<stop offset=".2" stop-color="#FFFFFF">
			<animate attributeName="offset" values=".2;.4;.55;.70;.85;1;1;1;1;1;1;.2;.2;.2;.2;.2;.2;.2;.2;.2" dur="20s" repeatCount="indefinite" />
		</stop>
		<stop offset=".2" stop-color="#FFCD18">
			<animate attributeName="offset" values=".2;.4;.55;.70;.85;1;1;1;1;1;1;.8;.6;.4;.2;.2;.2;.2;.2;.2" dur="20s" repeatCount="indefinite" />
		</stop>
	<!-- </linearGradient> -->
</defs>
</svg>
